<?xml version="1.0" encoding="utf-8"?>
<!-- Generator: Adobe Illustrator 16.0.0, SVG Export Plug-In . SVG Version: 6.00 Build 0)  -->
<!DOCTYPE svg PUBLIC "-//W3C//DTD SVG 1.1//EN" "http://www.w3.org/Graphics/SVG/1.1/DTD/svg11.dtd">
<svg version="1.1" id="Capa_1" xmlns="http://www.w3.org/2000/svg" xmlns:xlink="http://www.w3.org/1999/xlink" x="0px" y="0px"
	 width="500px" height="500px" viewBox="0 0 500 500" enable-background="new 0 0 500 500" xml:space="preserve">
<path fill="#B60B01" d="M250,0C112.15,0,0,112.15,0,250s112.15,250,250,250s250-112.15,250-250C499.991,112.15,387.85,0,250,0z
	 M250,459.705c-115.633,0-209.705-94.072-209.705-209.714c0-115.633,94.072-209.706,209.705-209.706
	c115.633,0,209.705,94.081,209.705,209.714C459.705,365.633,365.633,459.705,250,459.705z"/>
<g>
	<polygon fill="#B60B01" points="274.823,297.711 284.339,102.124 216.127,102.124 225.611,297.711 	"/>
	<path fill="#B60B01" d="M250.24,319.293c-22.872,0-38.871,16-38.871,39.275c0,22.438,15.533,39.309,38.001,39.309h0.87
		c23.308,0,38.391-16.871,38.391-39.309C288.226,335.293,273.098,319.293,250.24,319.293z"/>
</g>
</svg>
