<?xml version="1.0" encoding="utf-8"?>
<!-- Generator: Adobe Illustrator 16.0.0, SVG Export Plug-In . SVG Version: 6.00 Build 0)  -->
<!DOCTYPE svg PUBLIC "-//W3C//DTD SVG 1.1//EN" "http://www.w3.org/Graphics/SVG/1.1/DTD/svg11.dtd">
<svg version="1.1" id="Capa_1" xmlns="http://www.w3.org/2000/svg" xmlns:xlink="http://www.w3.org/1999/xlink" x="0px" y="0px"
	 width="500px" height="500px" viewBox="0 0 500 500" enable-background="new 0 0 500 500" xml:space="preserve">
<g>
	<g>
		<path fill="#B60B01" d="M250,0C112.15,0,0,112.15,0,250s112.15,250,250,250s250-112.15,250-250C499.991,112.15,387.85,0,250,0z
			 M250,459.705c-115.633,0-209.705-94.072-209.705-209.714c0-115.633,94.072-209.706,209.705-209.706
			c115.633,0,209.705,94.081,209.705,209.714C459.705,365.633,365.633,459.705,250,459.705z"/>
		<path fill="#B60B01" d="M329.692,170.281L213,286.982l-42.7-42.7c-7.863-7.873-20.619-7.873-28.482,0
			c-7.873,7.863-7.873,20.618,0,28.481l56.946,56.946c3.932,3.932,9.093,5.906,14.245,5.906c5.153,0,10.305-1.966,14.237-5.906
			l130.938-130.938c7.863-7.872,7.863-20.619,0-28.491C350.311,162.418,337.564,162.418,329.692,170.281z"/>
	</g>
</g>
</svg>
